<?xml version="1.0" encoding="UTF-8"?>
<!DOCTYPE svg PUBLIC "-//W3C//DTD SVG 1.1//EN" "http://www.w3.org/Graphics/SVG/1.1/DTD/svg11.dtd">
<!-- Creator: CorelDRAW -->
<svg xmlns="http://www.w3.org/2000/svg" xml:space="preserve" width="2048px" height="2048px" style="shape-rendering:geometricPrecision; text-rendering:geometricPrecision; image-rendering:optimizeQuality; fill-rule:evenodd; clip-rule:evenodd"
viewBox="0 0 2048 2048"
 xmlns:xlink="http://www.w3.org/1999/xlink">
 <defs>
  <style type="text/css">
   <![CDATA[
    .str0 {stroke:#212121;stroke-width:1.00039}
    .fil2 {fill:none}
    .fil1 {fill:#00695C}
    .fil0 {fill:#00897B}
    .fil6 {fill:#B71C1C}
    .fil4 {fill:#C62828}
    .fil5 {fill:#EF5350}
    .fil7 {fill:#F57F17}
    .fil8 {fill:#FBC02D}
    .fil3 {fill:#FFFFFE;fill-rule:nonzero}
   ]]>
  </style>
   <clipPath id="id0">
    <path d="M1024 0c565.539,0 1024,458.461 1024,1024 0,565.539 -458.461,1024 -1024,1024 -565.539,0 -1024,-458.461 -1024,-1024 0,-565.539 458.461,-1024 1024,-1024z"/>
   </clipPath>
 </defs>
 <g id="Layer_x0020_1">
  <metadata id="CorelCorpID_0Corel-Layer"/>
  <path class="fil0" d="M1024 0c565.539,0 1024,458.461 1024,1024 0,565.539 -458.461,1024 -1024,1024 -565.539,0 -1024,-458.461 -1024,-1024 0,-565.539 458.461,-1024 1024,-1024z"/>
  <g style="clip-path:url(#id0)">
   <g id="_341210680">
    <g>
     <polygon id="_3329008801" class="fil1" points="864.93,600.676 2000.81,1736.56 2007.45,1797.93 871.573,662.052 "/>
     <polygon id="_332900856" class="fil1" points="835.299,532.287 1971.18,1668.17 1973.86,1671.21 1976.44,1674.37 1978.93,1677.65 1981.31,1681.06 1983.58,1684.59 1985.74,1688.24 1987.78,1692.02 1989.71,1695.92 1991.5,1699.94 1993.17,1704.09 1994.7,1708.35 1996.09,1712.75 1997.34,1717.26 1998.44,1721.9 1999.39,1726.66 2000.18,1731.55 2000.81,1736.56 864.93,600.676 864.299,595.667 863.507,590.781 862.559,586.019 861.458,581.38 860.209,576.864 858.817,572.472 857.286,568.203 855.621,564.057 853.825,560.035 851.904,556.135 849.86,552.359 847.7,548.706 845.428,545.176 843.047,541.77 840.562,538.485 837.977,535.324 "/>
     <polygon id="_332902008" class="fil1" points="1412.48,661.55 2548.36,1797.43 2550.21,1799.68 2551.98,1802 2553.67,1804.41 2555.27,1806.91 2556.79,1809.48 2558.22,1812.14 2559.55,1814.88 2560.79,1817.71 2561.93,1820.62 2562.97,1823.61 2563.91,1826.68 2564.75,1829.84 2565.47,1833.08 2566.09,1836.4 2566.6,1839.8 2566.99,1843.29 2567.26,1846.86 2567.41,1850.51 2567.44,1854.25 2567.35,1858.07 2567.12,1861.97 2566.77,1865.95 2566.29,1870.01 2565.67,1874.16 1429.78,738.277 1430.4,734.13 1430.89,730.065 1431.24,726.083 1431.47,722.183 1431.56,718.366 1431.53,714.631 1431.38,710.978 1431.11,707.409 1430.72,703.921 1430.21,700.517 1429.59,697.195 1428.87,693.956 1428.03,690.799 1427.09,687.726 1426.05,684.735 1424.91,681.827 1423.67,679.002 1422.33,676.26 1420.91,673.601 1419.39,671.024 1417.79,668.532 1416.1,666.121 1414.33,663.794 "/>
     <polygon id="_332902152" class="fil1" points="1429.78,738.277 2565.67,1874.16 2552.17,1956.22 1416.29,820.338 "/>
     <polygon id="_332901768" class="fil1" points="921.107,660.021 2056.99,1795.9 2064.68,1814.64 928.802,678.759 "/>
     <polygon id="_332902080" class="fil1" points="981.398,676.477 2117.28,1812.36 2165.63,2436.21 1029.75,1300.33 "/>
     <polygon id="_332902728" class="fil1" points="1025.73,1352.25 2161.61,2488.13 1751.98,2551.15 616.102,1415.27 "/>
     <polygon id="_332903136" class="fil1" points="1431.9,1563.72 2567.78,2699.61 2150.2,2635.36 1014.32,1499.48 "/>
     <polygon id="_332902824" class="fil1" points="616.102,1415.27 1751.98,2551.15 1599.88,2513.93 463.999,1378.05 "/>
     <polygon id="_332902488" class="fil1" points="1528.26,824.929 2664.14,1960.81 2719.88,2662.38 1584,1526.5 "/>
     <polygon id="_332902560" class="fil1" points="1584,1526.5 2719.88,2662.38 2567.78,2699.61 1431.9,1563.72 "/>
    </g>
    <path id="_341210536" class="fil1" d="M921.107 660.021l7.69489 18.7382 52.5957 -2.28189 48.3555 623.849 36.8481 -475.398 52.5957 2.28189 7.69607 -18.7394 49.5331 2.0315 6.64371 -61.3749c5.85473,-54.0898 39.939,-87.104 78.2316,-99.2351 10.8662,-3.44292 22.0878,-5.19685 33.1075,-5.2689 5.32087,-2.6504 10.8047,-4.85906 16.3784,-6.62481 14.5205,-4.6004 29.6729,-6.18544 44.1366,-4.7693 14.5417,1.42323 28.3843,5.88426 40.1988,13.3665 25.8626,16.3819 42.0095,47.0067 34.6618,91.6808l-13.4976 82.0607 111.973 4.59095 55.7398 701.573 -152.104 37.2213 -417.58 -64.2426 11.4118 -147.228 -409.626 63.0201 -152.104 -37.2225 55.7398 -701.573 111.973 -4.59095 -13.4976 -82.0607c-7.34764,-44.6752 8.79922,-75.2989 34.6618,-91.6796 11.8146,-7.48229 25.6583,-11.9445 40.2,-13.3677 14.4626,-1.41614 29.615,0.168898 44.1366,4.7693 5.57245,1.76575 11.0563,3.97323 16.3772,6.62481 11.0209,0.0720473 22.2414,1.82599 33.1087,5.2689 38.2914,12.1323 72.3756,45.1453 78.2316,99.2351l6.64252 61.376 49.5343 -2.0315z"/>
   </g>
  </g>
  <path class="fil2" d="M1024 0c565.539,0 1024,458.461 1024,1024 0,565.539 -458.461,1024 -1024,1024 -565.539,0 -1024,-458.461 -1024,-1024 0,-565.539 458.461,-1024 1024,-1024z"/>
  <path class="fil3" d="M1217.44 876.907c-0.227953,2.14843 1.32874,4.07717 3.47717,4.30512 2.14843,0.227953 4.07835,-1.32874 4.3063,-3.47717l15.1181 -139.671c5.46733,-50.5087 37.1859,-81.3001 72.8079,-92.5867 13.5473,-4.29213 27.6378,-5.77678 41.0422,-4.46457 13.3276,1.30512 25.989,5.37756 36.7666,12.2043 23.3421,14.7827 37.8626,42.7335 31.1079,83.804l-25.2862 153.734c-0.346063,2.13189 1.10079,4.14331 3.23268,4.48937 2.13189,0.347244 4.14331,-1.10079 4.48937,-3.23268l25.2862 -153.734c7.34764,-44.6741 -8.79922,-75.2989 -34.6618,-91.6808 -11.8134,-7.48111 -25.6571,-11.9433 -40.1988,-13.3665 -14.4638,-1.41614 -29.6162,0.168898 -44.1366,4.7693 -38.2925,12.1323 -72.3768,45.1453 -78.2327,99.2363l-15.1181 139.671z"/>
  <polyline class="fil2 str0" points="1470.69,844.403 1496.14,1499.48 1431.9,1563.72 "/>
  <line class="fil2 str0" x1="1496.14" y1="1499.48" x2="1584" y2= "1526.5" />
  <polygon class="fil4" points="1431.9,1563.72 1119.2,827.21 1126.89,808.472 1528.26,824.929 1584,1526.5 "/>
  <polygon class="fil5" points="1066.6,824.929 1454.13,841.731 1431.9,1563.72 1014.32,1499.48 "/>
  <circle class="fil6" cx="1351.15" cy="903.276" r="13.8642"/>
  <circle class="fil6" cx="1171.84" cy="890.337" r="13.8642"/>
  <path class="fil3" d="M1167.95 888.8c-0.227953,2.14843 1.32874,4.07717 3.47717,4.30512 2.14843,0.227953 4.07717,-1.32874 4.30512,-3.47717l15.1193 -139.673c5.46615,-50.5075 37.1847,-81.3001 72.8067,-92.5867 13.5473,-4.29095 27.639,-5.77559 41.0433,-4.46339 13.3276,1.30394 25.989,5.37756 36.7666,12.2032 23.341,14.7839 37.8626,42.7347 31.1079,83.8052l-25.2862 153.735c-0.347244,2.13189 1.09961,4.14213 3.23268,4.48937 2.13189,0.346063 4.14213,-1.10079 4.48819,-3.23268l25.2874 -153.735c7.34764,-44.6752 -8.8004,-75.3001 -34.663,-91.6808 -11.8134,-7.48229 -25.6571,-11.9433 -40.1977,-13.3677 -14.4638,-1.41614 -29.6173,0.170079 -44.1378,4.77048 -38.2914,12.1323 -72.3768,45.1453 -78.2316,99.2351l-15.1181 139.673z"/>
  <path class="fil3" d="M830.562 728.455c0.227953,2.14843 -1.32874,4.07717 -3.47717,4.30512 -2.14843,0.227953 -4.07717,-1.32874 -4.30512,-3.47717l-15.1193 -139.671c-5.46615,-50.5087 -37.1847,-81.3001 -72.8079,-92.5867 -13.5461,-4.29213 -27.6378,-5.77559 -41.0422,-4.46457 -13.3276,1.30512 -25.989,5.37874 -36.7666,12.2043 -23.341,14.7827 -37.8626,42.7347 -31.1079,83.8052l25.2862 153.734c0.347244,2.13189 -1.10079,4.14213 -3.23268,4.48819 -2.13189,0.347244 -4.14213,-1.10079 -4.48937,-3.23268l-25.2862 -153.734c-7.34764,-44.6741 8.79922,-75.2989 34.663,-91.6808 11.8134,-7.48111 25.6571,-11.9421 40.1977,-13.3665 14.4638,-1.41614 29.6162,0.168898 44.1378,4.7693 38.2914,12.1323 72.3768,45.1453 78.2316,99.2363l15.1181 139.671z"/>
  <polyline class="fil2 str0" points="577.311,695.951 551.86,1351.03 616.102,1415.27 "/>
  <line class="fil2 str0" x1="551.86" y1="1351.03" x2="463.999" y2= "1378.05" />
  <polygon class="fil7" points="616.102,1415.27 928.802,678.759 921.106,660.021 519.739,676.478 463.999,1378.05 "/>
  <polygon class="fil8" points="981.399,676.478 593.866,693.279 616.102,1415.27 1033.68,1351.03 "/>
  <circle class="fil7" cx="696.847" cy="754.825" r="13.8642"/>
  <circle class="fil7" cx="876.156" cy="741.885" r="13.8642"/>
  <path class="fil3" d="M880.048 740.349c0.227953,2.14843 -1.32874,4.07835 -3.47717,4.3063 -2.14961,0.227953 -4.07835,-1.32874 -4.3063,-3.47835l-15.1181 -139.671c-5.46733,-50.5087 -37.1859,-81.3012 -72.8079,-92.5867 -13.5473,-4.29213 -27.6378,-5.77678 -41.0422,-4.46457 -13.3276,1.30512 -25.989,5.37756 -36.7666,12.2032 -23.3421,14.7839 -37.8626,42.7347 -31.1079,83.8052l25.2862 153.735c0.346063,2.13189 -1.10079,4.14213 -3.23268,4.48937 -2.13189,0.346063 -4.14331,-1.10079 -4.48937,-3.23268l-25.2862 -153.735c-7.34764,-44.6752 8.79922,-75.2989 34.6618,-91.6808 11.8134,-7.48229 25.6571,-11.9433 40.1988,-13.3677 14.4638,-1.41496 29.6162,0.170079 44.1366,4.77048 38.2925,12.1323 72.3768,45.1453 78.2316,99.2351l15.1193 139.673z"/>
 </g>
</svg>
